<svg width="22" height="23" viewBox="0 0 22 23" fill="none" xmlns="http://www.w3.org/2000/svg">
<path d="M11 2.21875C9.16435 2.21875 7.36991 2.76309 5.84362 3.78292C4.31732 4.80276 3.12772 6.25229 2.42525 7.94822C1.72277 9.64415 1.53897 11.5103 1.89709 13.3107C2.25521 15.1111 3.13916 16.7648 4.43717 18.0628C5.73518 19.3608 7.38894 20.2448 9.18932 20.6029C10.9897 20.961 12.8559 20.7772 14.5518 20.0748C16.2477 19.3723 17.6972 18.1827 18.7171 16.6564C19.7369 15.1301 20.2813 13.3357 20.2813 11.5C20.2785 9.0393 19.2998 6.68016 17.5598 4.94018C15.8198 3.2002 13.4607 2.22148 11 2.21875ZM11 18.7188C9.57227 18.7188 8.1766 18.2954 6.98948 17.5022C5.80236 16.709 4.87712 15.5815 4.33075 14.2625C3.78438 12.9434 3.64142 11.492 3.91996 10.0917C4.1985 8.69139 4.88602 7.40513 5.89558 6.39557C6.90514 5.38601 8.1914 4.69849 9.5917 4.41996C10.992 4.14142 12.4434 4.28437 13.7625 4.83074C15.0816 5.37711 16.209 6.30236 17.0022 7.48948C17.7954 8.67659 18.2188 10.0723 18.2188 11.5C18.2167 13.4139 17.4555 15.2488 16.1022 16.6022C14.7488 17.9555 12.9139 18.7167 11 18.7188ZM16.8438 11.5C16.8438 11.7735 16.7351 12.0358 16.5417 12.2292C16.3483 12.4226 16.086 12.5312 15.8125 12.5312H11C10.7265 12.5312 10.4642 12.4226 10.2708 12.2292C10.0774 12.0358 9.96875 11.7735 9.96875 11.5V6.6875C9.96875 6.414 10.0774 6.15169 10.2708 5.9583C10.4642 5.7649 10.7265 5.65625 11 5.65625C11.2735 5.65625 11.5358 5.7649 11.7292 5.9583C11.9226 6.15169 12.0313 6.414 12.0313 6.6875V10.4688H15.8125C16.086 10.4688 16.3483 10.5774 16.5417 10.7708C16.7351 10.9642 16.8438 11.2265 16.8438 11.5Z" fill="#8491A5"/>
</svg>
