<svg width="22" height="23" viewBox="0 0 22 23" fill="none" xmlns="http://www.w3.org/2000/svg">
<path d="M19.25 4.28125H2.75C2.29416 4.28125 1.85699 4.46233 1.53466 4.78466C1.21233 5.10699 1.03125 5.54416 1.03125 6V17C1.03125 17.4558 1.21233 17.893 1.53466 18.2153C1.85699 18.5377 2.29416 18.7188 2.75 18.7188H19.25C19.7058 18.7188 20.143 18.5377 20.4653 18.2153C20.7877 17.893 20.9688 17.4558 20.9688 17V6C20.9688 5.54416 20.7877 5.10699 20.4653 4.78466C20.143 4.46233 19.7058 4.28125 19.25 4.28125ZM18.9062 13.9062H18.5625C17.9243 13.9062 17.3123 13.6527 16.861 13.2015C16.4098 12.7502 16.1562 12.1382 16.1562 11.5C16.1562 10.8618 16.4098 10.2498 16.861 9.79852C17.3123 9.34727 17.9243 9.09375 18.5625 9.09375H18.9062V13.9062ZM3.09375 9.09375H3.4375C4.07568 9.09375 4.68772 9.34727 5.13898 9.79852C5.59023 10.2498 5.84375 10.8618 5.84375 11.5C5.84375 12.1382 5.59023 12.7502 5.13898 13.2015C4.68772 13.6527 4.07568 13.9062 3.4375 13.9062H3.09375V9.09375ZM3.09375 15.9688H3.4375C4.62269 15.9688 5.75933 15.4979 6.59738 14.6599C7.43544 13.8218 7.90625 12.6852 7.90625 11.5C7.90625 10.3148 7.43544 9.17817 6.59738 8.34012C5.75933 7.50206 4.62269 7.03125 3.4375 7.03125H3.09375V6.34375H9.96875V16.6562H3.09375V15.9688ZM12.0312 16.6562V6.34375H18.9062V7.03125H18.5625C17.3773 7.03125 16.2407 7.50206 15.4026 8.34012C14.5646 9.17817 14.0938 10.3148 14.0938 11.5C14.0938 12.6852 14.5646 13.8218 15.4026 14.6599C16.2407 15.4979 17.3773 15.9688 18.5625 15.9688H18.9062V16.6562H12.0312Z" fill="#8491A5"/>
</svg>
