<svg width="22" height="22" viewBox="0 0 22 22" fill="none" xmlns="http://www.w3.org/2000/svg">
<path d="M13.5667 4.22845L19.7092 14.4594C20.592 15.9288 20.1584 17.862 18.7403 18.7769C18.2644 19.085 17.7096 19.2493 17.1426 19.2499H4.8565C3.18725 19.2499 1.83333 17.8474 1.83333 16.1158C1.83333 15.53 1.99192 14.9571 2.28983 14.4594L8.43333 4.22845C9.31517 2.75904 11.1797 2.30895 12.5978 3.22379C12.9901 3.47679 13.3219 3.82054 13.5667 4.22845ZM11.5317 4.99754C11.4194 4.92536 11.2938 4.87667 11.1622 4.85442C11.0306 4.83218 10.8959 4.83683 10.7662 4.8681C10.6365 4.89937 10.5145 4.95662 10.4075 5.03637C10.3005 5.11612 10.2108 5.21673 10.1438 5.33212L4.00125 15.5649C3.90147 15.7316 3.84887 15.9224 3.84908 16.1167C3.84908 16.6942 4.30008 17.1617 4.85742 17.1617H17.1417C17.3305 17.1617 17.5148 17.1067 17.6743 17.004C17.9031 16.852 18.0645 16.6175 18.1248 16.3494C18.1851 16.0813 18.1396 15.8003 17.9978 15.5649L11.8552 5.33212C11.7747 5.19739 11.6643 5.08293 11.5326 4.99754H11.5317ZM11 15.5832C10.7569 15.5832 10.5237 15.4866 10.3518 15.3147C10.1799 15.1428 10.0833 14.9097 10.0833 14.6665C10.0833 14.4234 10.1799 14.1903 10.3518 14.0184C10.5237 13.8464 10.7569 13.7499 11 13.7499C11.2431 13.7499 11.4763 13.8464 11.6482 14.0184C11.8201 14.1903 11.9167 14.4234 11.9167 14.6665C11.9167 14.9097 11.8201 15.1428 11.6482 15.3147C11.4763 15.4866 11.2431 15.5832 11 15.5832ZM11 7.3332C11.2431 7.3332 11.4763 7.42978 11.6482 7.60169C11.8201 7.7736 11.9167 8.00675 11.9167 8.24987V11.9165C11.9167 12.1597 11.8201 12.3928 11.6482 12.5647C11.4763 12.7366 11.2431 12.8332 11 12.8332C10.7569 12.8332 10.5237 12.7366 10.3518 12.5647C10.1799 12.3928 10.0833 12.1597 10.0833 11.9165V8.24987C10.0833 8.00675 10.1799 7.7736 10.3518 7.60169C10.5237 7.42978 10.7569 7.3332 11 7.3332Z" fill="#8491A5"/>
</svg>
