<svg width="22" height="23" viewBox="0 0 22 23" fill="none" xmlns="http://www.w3.org/2000/svg">
<path d="M2.74998 5.08335V4.16669C2.50686 4.16669 2.27371 4.26326 2.1018 4.43517C1.92989 4.60708 1.83331 4.84024 1.83331 5.08335H2.74998ZM19.25 5.08335H20.1666C20.1666 4.84024 20.0701 4.60708 19.8982 4.43517C19.7263 4.26326 19.4931 4.16669 19.25 4.16669V5.08335ZM2.74998 6.00002H19.25V4.16669H2.74998V6.00002ZM18.3333 5.08335V16.0834H20.1666V5.08335H18.3333ZM17.4166 17H4.58331V18.8334H17.4166V17ZM3.66665 16.0834V5.08335H1.83331V16.0834H3.66665ZM4.58331 17C4.3402 17 4.10704 16.9034 3.93513 16.7315C3.76322 16.5596 3.66665 16.3265 3.66665 16.0834H1.83331C1.83331 16.8127 2.12304 17.5122 2.63877 18.0279C3.15449 18.5436 3.85397 18.8334 4.58331 18.8334V17ZM18.3333 16.0834C18.3333 16.3265 18.2367 16.5596 18.0648 16.7315C17.8929 16.9034 17.6598 17 17.4166 17V18.8334C18.146 18.8334 18.8455 18.5436 19.3612 18.0279C19.8769 17.5122 20.1666 16.8127 20.1666 16.0834H18.3333Z" fill="#8491A5"/>
<path d="M2.75 5.08337L11 13.3334L19.25 5.08337" stroke="#8491A5" stroke-width="1.83333" stroke-linecap="round" stroke-linejoin="round"/>
</svg>
