<svg width="22" height="23" viewBox="0 0 22 23" fill="none" xmlns="http://www.w3.org/2000/svg">
<path d="M18.9842 15.2583L17.4809 13.755C17.3493 13.6329 17.2591 13.4727 17.2229 13.2969C17.1868 13.121 17.2064 12.9383 17.2792 12.7742C17.5989 12.0877 17.7677 11.3406 17.7742 10.5833C17.7785 10.5529 17.7785 10.5221 17.7742 10.4917C17.7774 9.39478 17.4376 8.32432 16.8025 7.43C15.5752 5.7147 13.9486 4.32408 12.0634 3.37833C10.8675 2.79292 9.51914 2.594 8.20517 2.80917C6.89121 3.02433 5.67672 3.64291 4.73003 4.57916L4.11586 5.19333C3.16975 6.14361 2.54513 7.36642 2.32974 8.68996C2.11436 10.0135 2.31904 11.3713 2.91503 12.5725L3.00669 12.7283C2.5175 13.2358 2.24186 13.9118 2.23669 14.6167C2.24033 15.1031 2.37292 15.5798 2.62092 15.9982C2.86893 16.4167 3.22348 16.7618 3.64842 16.9985C4.07335 17.2352 4.55346 17.355 5.03978 17.3456C5.5261 17.3362 6.00123 17.1979 6.41669 16.945C6.58169 17.0733 6.72836 17.2108 6.89336 17.33C7.24033 17.5712 7.616 17.7683 8.01169 17.9167H8.09419C8.25919 17.9808 8.43336 18.0358 8.61669 18.0908H8.75419C9.03947 18.1641 9.33105 18.2101 9.62503 18.2283H10.1934C10.3859 18.2283 10.5692 18.2283 10.7617 18.1733H10.9175C11.3682 18.0959 11.8062 17.9572 12.2192 17.7608C12.3838 17.6946 12.5641 17.6775 12.7382 17.7116C12.9123 17.7458 13.0727 17.8298 13.2 17.9533L14.5384 19.2917C15.119 19.8744 15.9066 20.2039 16.7292 20.2083C17.4192 20.2009 18.0783 19.9208 18.5625 19.4292L18.9109 19.0808C19.4165 18.5776 19.7068 17.8976 19.7204 17.1844C19.7341 16.4712 19.4701 15.7806 18.9842 15.2583ZM4.95919 15.5517C4.77789 15.5517 4.60067 15.4979 4.44992 15.3972C4.29918 15.2965 4.18169 15.1533 4.1123 14.9858C4.04292 14.8183 4.02477 14.634 4.06014 14.4562C4.09551 14.2783 4.18281 14.115 4.31101 13.9868C4.43921 13.8586 4.60255 13.7713 4.78036 13.7359C4.95818 13.7006 5.14249 13.7187 5.30999 13.7881C5.47749 13.8575 5.62065 13.975 5.72137 14.1257C5.8221 14.2765 5.87586 14.4537 5.87586 14.635C5.87586 14.8781 5.77928 15.1113 5.60738 15.2832C5.43547 15.4551 5.20231 15.5517 4.95919 15.5517ZM7.80086 15.68L7.56253 15.4967C7.65798 15.2193 7.70752 14.9283 7.70919 14.635C7.70919 13.9057 7.41946 13.2062 6.90374 12.6905C6.38801 12.1747 5.68854 11.885 4.95919 11.885H4.61086L4.52836 11.7383C4.102 10.8808 3.95494 9.91132 4.10785 8.96596C4.26075 8.0206 4.70593 7.14687 5.38086 6.4675L5.99503 5.85333C6.68313 5.19383 7.55971 4.76525 8.50278 4.62724C9.44584 4.48923 10.4085 4.64866 11.2567 5.08333C12.7965 5.85353 14.1341 6.97443 15.1617 8.35583L7.80086 15.68ZM17.6825 17.8525L17.3434 18.2008C16.9584 18.5858 16.3625 18.5125 15.8675 18.0175L14.5292 16.6883C14.1351 16.2968 13.6316 16.0338 13.0851 15.934C12.5386 15.8341 11.9746 15.9022 11.4675 16.1292C11.1785 16.2708 10.8693 16.3666 10.5509 16.4133C10.3757 16.4468 10.1975 16.4621 10.0192 16.4592H9.61586L15.9134 10.1617C15.9775 10.7897 15.8698 11.4234 15.6017 11.995C15.3747 12.5021 15.3067 13.066 15.4065 13.6125C15.5063 14.1591 15.7693 14.6625 16.1609 15.0567L17.6642 16.5692C17.8346 16.7381 17.932 16.9671 17.9354 17.2071C17.9389 17.447 17.8481 17.6788 17.6825 17.8525Z" fill="#8491A5"/>
</svg>
