<svg width="22" height="23" viewBox="0 0 22 23" fill="none" xmlns="http://www.w3.org/2000/svg">
<path d="M11.9167 1.41669C7.7 1.41669 4.21666 4.53335 3.75833 8.65835L2.29166 10.5834C1.83333 11.3167 1.74166 12.2334 2.10833 12.9667C2.475 13.6084 3.025 14.0667 3.66666 14.1584V15.1667C3.66666 16.8167 4.85833 18.2834 6.41666 18.7417V21.5834H16.5V16.5417C18.7917 14.9834 20.1667 12.5084 20.1667 9.66669C20.1667 5.08335 16.5 1.41669 11.9167 1.41669ZM14.6667 15.4417V19.75H8.25V17H7.33333C6.325 17 5.5 16.175 5.5 15.1667V12.4167H4.125C3.75833 12.4167 3.48333 11.9584 3.75833 11.6834L5.5 9.39169C5.68333 6.00002 8.43333 3.25002 11.9167 3.25002C15.4917 3.25002 18.3333 6.09169 18.3333 9.66669C18.3333 12.2334 16.8667 14.4334 14.6667 15.4417Z" fill="#8491A5"/>
</svg>
