<svg width="22" height="23" viewBox="0 0 22 23" fill="none" xmlns="http://www.w3.org/2000/svg">
<path d="M12.155 3.25003C7.48917 3.12169 3.66667 6.87086 3.66667 11.5H2.02584C1.61334 11.5 1.41167 11.995 1.70501 12.2792L4.26251 14.8459C4.44584 15.0292 4.73001 15.0292 4.91334 14.8459L7.47084 12.2792C7.53418 12.2146 7.57698 12.1326 7.59384 12.0437C7.6107 11.9548 7.60086 11.8629 7.56557 11.7796C7.53028 11.6963 7.47112 11.6253 7.39553 11.5755C7.31995 11.5258 7.23133 11.4995 7.14084 11.5H5.50001C5.50001 7.92503 8.41501 5.03753 12.0083 5.08336C15.4183 5.12919 18.2875 7.99836 18.3333 11.4084C18.3792 14.9925 15.4917 17.9167 11.9167 17.9167C10.4408 17.9167 9.07501 17.4125 7.99334 16.56C7.81777 16.4217 7.59748 16.3528 7.37438 16.3663C7.15128 16.3798 6.94093 16.4749 6.78334 16.6334C6.39834 17.0184 6.42584 17.6692 6.85667 17.9992C8.29687 19.1381 10.0806 19.7553 11.9167 19.75C16.5458 19.75 20.295 15.9275 20.1667 11.2617C20.0475 6.96253 16.4542 3.36919 12.155 3.25003ZM11.6875 7.83336C11.3117 7.83336 11 8.14503 11 8.52086V11.8942C11 12.215 11.1742 12.5175 11.4492 12.6825L14.3092 14.3784C14.6392 14.5709 15.0608 14.4609 15.2533 14.14C15.4458 13.81 15.3358 13.3884 15.015 13.1959L12.375 11.6284V8.51169C12.375 8.14503 12.0633 7.83336 11.6875 7.83336Z" fill="#8491A5"/>
</svg>
