<svg width="22" height="23" viewBox="0 0 22 23" fill="none" xmlns="http://www.w3.org/2000/svg">
<path d="M10.3913 2.56526C10.5591 2.41629 10.7757 2.33401 11 2.33401C11.2244 2.33401 11.4409 2.41629 11.6087 2.56526L19.8587 9.89859C20.0311 10.0624 20.1332 10.2869 20.1432 10.5245C20.1532 10.7622 20.0705 10.9944 19.9125 11.1722C19.7544 11.35 19.5335 11.4594 19.2963 11.4773C19.0591 11.4952 18.8243 11.4202 18.6413 11.2681L18.3333 10.9958V17.9167C18.3333 18.4029 18.1402 18.8692 17.7964 19.213C17.4526 19.5569 16.9862 19.75 16.5 19.75H5.50001C5.01378 19.75 4.54747 19.5569 4.20365 19.213C3.85984 18.8692 3.66668 18.4029 3.66668 17.9167V10.9958L3.35868 11.2681C3.17577 11.4202 2.94091 11.4952 2.70372 11.4773C2.46653 11.4594 2.24559 11.35 2.08756 11.1722C1.92953 10.9944 1.8468 10.7622 1.85684 10.5245C1.86687 10.2869 1.96889 10.0624 2.14135 9.89859L10.3913 2.56526ZM5.50001 9.36418V17.9167H8.25001V13.3333C8.25001 13.0902 8.34659 12.8571 8.5185 12.6852C8.69041 12.5133 8.92357 12.4167 9.16668 12.4167H12.8333C13.0765 12.4167 13.3096 12.5133 13.4815 12.6852C13.6534 12.8571 13.75 13.0902 13.75 13.3333V17.9167H16.5V9.36509L11 4.47651L5.50001 9.36418ZM11.9167 17.9167V14.25H10.0833V17.9167H11.9167Z" fill="#8491A5"/>
</svg>
