<svg width="24" height="24" viewBox="0 0 24 24" fill="none" xmlns="http://www.w3.org/2000/svg">
<path d="M12.8196 5.57803L11.9996 6.40003L11.1756 5.57603C10.1675 4.56808 8.80028 4.00187 7.37472 4.00196C5.94916 4.00205 4.58203 4.56844 3.57407 5.57653C2.56612 6.58462 1.99991 7.95183 2 9.37739C2.00009 10.8029 2.56648 12.1701 3.57457 13.178L11.4696 21.073C11.6102 21.2135 11.8008 21.2924 11.9996 21.2924C12.1983 21.2924 12.3889 21.2135 12.5296 21.073L20.4316 13.176C21.4385 12.1679 22.0039 10.8012 22.0038 9.37632C22.0036 7.95145 21.4377 6.58494 20.4306 5.57703C19.9309 5.07707 19.3377 4.68046 18.6847 4.40987C18.0318 4.13928 17.3319 4 16.6251 4C15.9183 4 15.2184 4.13928 14.5654 4.40987C13.9124 4.68046 13.3192 5.07807 12.8196 5.57803ZM16.6251 4.40984C15.9416 5.14602 12.0116 8.21496 12.0116 8.21496L9.71944 5.59872C9.35647 5.23959 9.97053 5.709 9.49957 5.51172C9.30229 5.04076 6.00093 6.00865 5.99957 5.49805C5.99821 4.98744 4.49957 5.01172 4.49957 6.01172C4.69435 5.53972 4.2589 6.98447 4.61996 6.62342C4.98101 6.26236 5.52757 6.8328 5.99957 6.63803C6.47157 6.44326 6.86411 5.76138 7.37472 5.76274C7.88532 5.7641 9.02862 5.31444 9.49957 5.51172C9.97053 5.709 9.36031 5.23575 9.71944 5.59872L11.4726 7.99503C11.5432 8.06577 11.6273 8.12166 11.7199 8.15943C11.8124 8.1972 11.9116 8.21608 12.0116 8.21496C12.1116 8.21385 12.2103 8.19275 12.302 8.15292C12.3937 8.11309 12.4765 8.05533 12.5456 7.98303L14.5654 6.73279C15.3007 6.04836 15.587 5.58104 16.5914 5.59872C17.5958 5.61639 18.5542 6.02292 19.2649 6.73279C19.9757 7.44266 19.481 4.99564 19.5 6.00001C19.519 7.00438 17.3086 3.67366 16.6251 4.40984Z" fill="#F05151"/>
</svg>
