<svg width="601" height="135" viewBox="0 0 601 135" fill="none" xmlns="http://www.w3.org/2000/svg">
<path d="M61.29 35.28L58.5 51.12H41.58L33.12 99H13.14L21.6 51.12H4.86L7.65 35.28H61.29ZM85.699 51.12L84.349 59.04H104.149L101.449 74.07H81.649L80.029 83.07H102.529L99.739 99H57.259L68.509 35.28H110.989L108.199 51.12H85.699ZM170.179 99H150.199L134.719 66.96L129.049 99H109.069L120.319 35.28H140.299L155.689 67.86L161.449 35.28H181.429L170.179 99ZM242.115 99H222.135L206.655 66.96L200.985 99H181.005L192.255 35.28H212.235L227.625 67.86L233.385 35.28H253.365L242.115 99ZM284.172 35.28L272.922 99H252.942L264.192 35.28H284.172ZM311.106 99.63C303.306 99.63 297.066 98.07 292.386 94.95C287.766 91.83 285.456 87.27 285.456 81.27C285.456 80.67 285.516 79.77 285.636 78.57H306.876C306.696 80.43 306.966 81.81 307.686 82.71C308.466 83.61 309.726 84.06 311.466 84.06C312.546 84.06 313.446 83.79 314.166 83.25C314.886 82.71 315.246 81.93 315.246 80.91C315.246 79.47 314.526 78.27 313.086 77.31C311.706 76.35 309.456 75.21 306.336 73.89C302.916 72.45 300.096 71.07 297.876 69.75C295.716 68.43 293.826 66.63 292.206 64.35C290.586 62.07 289.776 59.22 289.776 55.8C289.776 51.3 290.886 47.43 293.106 44.19C295.386 40.89 298.536 38.4 302.556 36.72C306.576 35.04 311.166 34.2 316.326 34.2C320.946 34.2 325.056 34.92 328.656 36.36C332.316 37.8 335.166 39.9 337.206 42.66C339.306 45.36 340.356 48.57 340.356 52.29C340.356 52.77 340.296 53.61 340.176 54.81H318.666C318.786 54.09 318.846 53.61 318.846 53.37C318.846 52.23 318.516 51.36 317.856 50.76C317.196 50.1 316.296 49.77 315.156 49.77C314.136 49.77 313.296 50.07 312.636 50.67C311.976 51.27 311.646 52.05 311.646 53.01C311.646 54.33 312.336 55.5 313.716 56.52C315.096 57.48 317.286 58.68 320.286 60.12C323.706 61.74 326.526 63.27 328.746 64.71C331.026 66.15 332.976 68.07 334.596 70.47C336.216 72.81 337.026 75.69 337.026 79.11C337.026 83.01 335.976 86.52 333.876 89.64C331.836 92.76 328.866 95.22 324.966 97.02C321.066 98.76 316.446 99.63 311.106 99.63ZM353.1 99.72C349.98 99.72 347.52 98.97 345.72 97.47C343.98 95.97 343.11 94.02 343.11 91.62C343.11 89.52 343.68 87.57 344.82 85.77C346.02 83.97 347.64 82.56 349.68 81.54C351.78 80.46 354.09 79.92 356.61 79.92C359.67 79.92 362.07 80.7 363.81 82.26C365.55 83.76 366.42 85.71 366.42 88.11C366.42 90.21 365.85 92.16 364.71 93.96C363.57 95.7 361.98 97.11 359.94 98.19C357.9 99.21 355.62 99.72 353.1 99.72ZM396.51 83.88H415.77L413.07 99H373.83L385.08 35.28H405.06L396.51 83.88ZM493.608 35.28L462.918 79.65L459.498 99H439.518L442.938 79.65L427.908 35.28H450.768L456.978 57.87L471.108 35.28H493.608Z" fill="#3694E7"/>
<path d="M537.271 101.977L543.763 95.4854C544.29 94.9171 544.981 94.5277 545.741 94.3716C546.5 94.2155 547.289 94.3004 547.998 94.6146C550.962 95.995 554.188 96.7238 557.458 96.7521C557.59 96.7705 557.723 96.7705 557.854 96.7521C562.591 96.7657 567.213 95.2987 571.075 92.5562C578.482 87.2564 584.487 80.2325 588.571 72.0917C591.099 66.9277 591.958 61.1053 591.029 55.4313C590.1 49.7574 587.428 44.513 583.385 40.425L580.733 37.7729C576.63 33.6874 571.35 30.9902 565.634 30.0601C559.919 29.1301 554.056 30.0139 548.869 32.5875L548.196 32.9833C546.004 30.8709 543.085 29.6807 540.042 29.6583C537.941 29.674 535.883 30.2466 534.076 31.3175C532.269 32.3884 530.778 33.9194 529.756 35.7544C528.734 37.5893 528.217 39.6626 528.258 41.7626C528.298 43.8626 528.895 45.9143 529.988 47.7083C529.433 48.4208 528.84 49.0542 528.325 49.7667C527.283 51.2649 526.432 52.8871 525.792 54.5958V54.9521C525.515 55.6646 525.277 56.4167 525.04 57.2083V57.8021C524.723 59.0339 524.524 60.2931 524.446 61.5625V64.0167C524.446 64.8479 524.446 65.6396 524.683 66.4708V67.1437C525.018 69.0899 525.617 70.9811 526.465 72.7646C526.751 73.4753 526.825 74.2537 526.677 75.0055C526.529 75.7574 526.167 76.4502 525.633 77L519.854 82.7792C517.338 85.2866 515.915 88.6873 515.896 92.2396C515.928 95.2193 517.137 98.0653 519.26 100.156L520.765 101.66C522.938 103.844 525.874 105.097 528.954 105.156C532.034 105.215 535.016 104.075 537.271 101.977ZM536.004 41.4146C536.004 40.6317 536.236 39.8664 536.671 39.2154C537.106 38.5645 537.724 38.0571 538.448 37.7576C539.171 37.458 539.967 37.3796 540.735 37.5323C541.503 37.685 542.208 38.062 542.761 38.6156C543.315 39.1692 543.692 39.8745 543.845 40.6423C543.998 41.4102 543.919 42.2061 543.62 42.9294C543.32 43.6527 542.813 44.2709 542.162 44.7058C541.511 45.1408 540.745 45.3729 539.963 45.3729C538.913 45.3729 537.906 44.9559 537.164 44.2135C536.421 43.4712 536.004 42.4644 536.004 41.4146ZM535.45 53.6854L536.242 52.6562C537.439 53.0684 538.696 53.2823 539.963 53.2896C543.112 53.2896 546.132 52.0385 548.359 49.8115C550.586 47.5845 551.838 44.564 551.838 41.4146V39.9104L552.471 39.5542C556.174 37.7131 560.36 37.078 564.442 37.7383C568.525 38.3986 572.298 40.3209 575.231 43.2354L577.883 45.8875C580.731 48.8588 582.582 52.6441 583.178 56.7164C583.774 60.7887 583.085 64.9455 581.208 68.6083C577.883 75.2576 573.042 81.0334 567.077 85.4708L535.45 53.6854ZM526.069 96.3562L524.565 94.8917C522.902 93.2292 523.219 90.6562 525.356 88.5187L531.096 82.7396C532.787 81.0377 533.922 78.8636 534.353 76.5036C534.784 74.1436 534.491 71.7084 533.51 69.5187C532.899 68.2708 532.485 66.9354 532.283 65.5604C532.139 64.8039 532.073 64.0346 532.085 63.2646V61.5229L559.279 88.7167C556.567 88.9938 553.831 88.5286 551.363 87.3708C549.173 86.3907 546.738 86.0968 544.378 86.5279C542.018 86.9589 539.844 88.0946 538.142 89.7854L531.61 96.2771C530.881 97.013 529.892 97.4335 528.856 97.4483C527.82 97.4631 526.819 97.071 526.069 96.3562Z" fill="#5FA2DD"/>
</svg>
