<svg width="22" height="23" viewBox="0 0 22 23" fill="none" xmlns="http://www.w3.org/2000/svg">
<path fill-rule="evenodd" clip-rule="evenodd" d="M8.635 2.33333C8.95815 2.33344 9.27553 2.41895 9.55499 2.58122C9.83445 2.74348 10.0661 2.97673 10.2263 3.25733L11 4.61033L11.7737 3.25733C11.9339 2.97673 12.1656 2.74348 12.445 2.58122C12.7245 2.41895 13.0418 2.33344 13.365 2.33333H17.5432C17.784 2.33325 18.0207 2.39644 18.2295 2.51658C18.4382 2.63672 18.6118 2.80959 18.7327 3.01788C18.8537 3.22618 18.9178 3.46259 18.9186 3.70346C18.9195 3.94432 18.8571 4.18118 18.7376 4.39033L15.6374 9.81517C16.5061 10.7235 17.0889 11.8671 17.3134 13.1037C17.538 14.3404 17.3944 15.6158 16.9005 16.7716C16.4065 17.9274 15.584 18.9126 14.5351 19.6051C13.4861 20.2976 12.2569 20.6667 11 20.6667C9.7431 20.6667 8.51388 20.2976 7.46492 19.6051C6.41597 18.9126 5.59348 17.9274 5.09955 16.7716C4.60562 15.6158 4.46202 14.3404 4.68655 13.1037C4.91109 11.8671 5.49388 10.7235 6.36258 9.81517L3.26242 4.39033C3.14295 4.18118 3.08051 3.94432 3.08137 3.70346C3.08222 3.46259 3.14633 3.22618 3.26728 3.01788C3.38823 2.80959 3.56178 2.63672 3.77054 2.51658C3.97931 2.39644 4.21597 2.33325 4.45683 2.33333H8.635ZM11 9.66667C9.78442 9.66667 8.61864 10.1496 7.75909 11.0091C6.89955 11.8686 6.41667 13.0344 6.41667 14.25C6.41667 15.4656 6.89955 16.6314 7.75909 17.4909C8.61864 18.3504 9.78442 18.8333 11 18.8333C12.2156 18.8333 13.3814 18.3504 14.2409 17.4909C15.1004 16.6314 15.5833 15.4656 15.5833 14.25C15.5833 13.0344 15.1004 11.8686 14.2409 11.0091C13.3814 10.1496 12.2156 9.66667 11 9.66667ZM11 12.4167C11.4862 12.4167 11.9525 12.6098 12.2964 12.9536C12.6402 13.2975 12.8333 13.7638 12.8333 14.25C12.8333 14.7362 12.6402 15.2025 12.2964 15.5464C11.9525 15.8902 11.4862 16.0833 11 16.0833C10.5138 16.0833 10.0475 15.8902 9.70364 15.5464C9.35982 15.2025 9.16667 14.7362 9.16667 14.25C9.16667 13.7638 9.35982 13.2975 9.70364 12.9536C10.0475 12.6098 10.5138 12.4167 11 12.4167ZM16.7539 4.16667H13.365L12.056 6.45833L13.0277 8.16058C13.431 8.29442 13.816 8.46767 14.1781 8.67392L16.7539 4.16667ZM8.635 4.16667H5.24608L7.82192 8.67392C8.71128 8.16594 9.70985 7.87951 10.7332 7.83883L8.635 4.16667Z" fill="#8491A5"/>
</svg>
