<svg width="22" height="23" viewBox="0 0 22 23" fill="none" xmlns="http://www.w3.org/2000/svg">
<path d="M19.3609 14.7596C18.6149 13.4766 18.2188 11.6349 18.2188 9.4375C18.2188 7.52297 17.4582 5.68685 16.1045 4.33307C14.7507 2.97929 12.9146 2.21875 11 2.21875C9.08549 2.21875 7.24937 2.97929 5.8956 4.33307C4.54182 5.68685 3.78127 7.52297 3.78127 9.4375C3.78127 11.6358 3.38682 13.4766 2.64088 14.7596C2.48867 15.0213 2.40799 15.3184 2.40693 15.6212C2.40588 15.9239 2.48449 16.2216 2.63487 16.4844C2.7843 16.7473 3.00119 16.9655 3.26315 17.1166C3.5251 17.2677 3.82264 17.3461 4.12502 17.3437H7.23424C7.31952 18.2836 7.75314 19.1576 8.44994 19.794C9.14673 20.4304 10.0563 20.7833 11 20.7833C11.9437 20.7833 12.8533 20.4304 13.5501 19.794C14.2469 19.1576 14.6805 18.2836 14.7658 17.3437H17.875C18.177 17.3456 18.474 17.267 18.7354 17.1159C18.9969 16.9649 19.2134 16.7469 19.3626 16.4844C19.5136 16.222 19.593 15.9245 19.5927 15.6218C19.5924 15.319 19.5124 15.0217 19.3609 14.7596ZM11 18.7187C10.6038 18.7188 10.2197 18.582 9.91278 18.3314C9.60584 18.0809 9.39489 17.732 9.31565 17.3437H12.6844C12.6052 17.732 12.3942 18.0809 12.0873 18.3314C11.7803 18.582 11.3962 18.7188 11 18.7187ZM4.69737 15.2812C5.45791 13.7344 5.84377 11.7698 5.84377 9.4375C5.84377 8.06998 6.38702 6.75846 7.354 5.79148C8.32099 4.8245 9.6325 4.28125 11 4.28125C12.3675 4.28125 13.6791 4.8245 14.646 5.79148C15.613 6.75846 16.1563 8.06998 16.1563 9.4375C16.1563 11.769 16.5413 13.7344 17.3018 15.2812H4.69737Z" fill="#8491A5"/>
</svg>
