<svg width="22" height="22" viewBox="0 0 22 22" fill="none" xmlns="http://www.w3.org/2000/svg">
<g clip-path="url(#clip0_594_1853)">
<path d="M14.6988 2.7637C15.1923 2.26998 15.8553 1.98248 16.553 1.9595C17.2508 1.93652 17.9312 2.17978 18.4562 2.63995L18.5882 2.7637L19.2363 3.41179C19.7297 3.90534 20.017 4.56805 20.04 5.2656C20.063 5.96314 19.8199 6.64333 19.36 7.16829L19.2363 7.30029L8.95858 17.5789C8.81327 17.7242 8.63723 17.8351 8.44342 17.9034L8.29492 17.9465L4.21208 18.8888C4.06905 18.9218 3.92018 18.9201 3.77796 18.8837C3.63575 18.8473 3.50434 18.7773 3.39478 18.6796C3.28522 18.5819 3.2007 18.4593 3.14832 18.3222C3.09594 18.185 3.07722 18.0373 3.09375 17.8915L3.11208 17.7879L4.0535 13.7041C4.10001 13.5038 4.19085 13.3165 4.31933 13.156L4.42108 13.0414L14.6988 2.7637ZM14.0507 6.00412L5.80983 14.245L5.22683 16.7731L7.755 16.1892L15.9958 7.94837L14.0507 6.00412ZM17.292 4.05987C17.1342 3.90204 16.9241 3.80723 16.7014 3.79322C16.4786 3.77921 16.2584 3.84697 16.082 3.98379L15.9958 4.05987L15.3468 4.70795L17.292 6.6522L17.9401 6.00412C18.0979 5.84628 18.1927 5.63627 18.2067 5.41349C18.2207 5.19072 18.153 4.97049 18.0162 4.79412L17.9401 4.70795L17.292 4.05987Z" fill="#8491A5"/>
</g>
<defs>
<clipPath id="clip0_594_1853">
<rect width="22" height="22" fill="white"/>
</clipPath>
</defs>
</svg>
