<svg width="22" height="23" viewBox="0 0 22 23" fill="none" xmlns="http://www.w3.org/2000/svg">
<path fill-rule="evenodd" clip-rule="evenodd" d="M14.6667 8.74998C14.6667 9.72244 14.2804 10.6551 13.5928 11.3427C12.9051 12.0303 11.9725 12.4166 11 12.4166C10.0276 12.4166 9.09495 12.0303 8.40732 11.3427C7.71968 10.6551 7.33337 9.72244 7.33337 8.74998C7.33337 7.77752 7.71968 6.84489 8.40732 6.15725C9.09495 5.46962 10.0276 5.08331 11 5.08331C11.9725 5.08331 12.9051 5.46962 13.5928 6.15725C14.2804 6.84489 14.6667 7.77752 14.6667 8.74998ZM12.8334 8.74998C12.8334 9.23621 12.6402 9.70253 12.2964 10.0463C11.9526 10.3902 11.4863 10.5833 11 10.5833C10.5138 10.5833 10.0475 10.3902 9.70368 10.0463C9.35986 9.70253 9.16671 9.23621 9.16671 8.74998C9.16671 8.26375 9.35986 7.79743 9.70368 7.45362C10.0475 7.1098 10.5138 6.91665 11 6.91665C11.4863 6.91665 11.9526 7.1098 12.2964 7.45362C12.6402 7.79743 12.8334 8.26375 12.8334 8.74998Z" fill="#8491A5"/>
<path fill-rule="evenodd" clip-rule="evenodd" d="M11 1.41666C5.43127 1.41666 0.916687 5.93124 0.916687 11.5C0.916687 17.0687 5.43127 21.5833 11 21.5833C16.5688 21.5833 21.0834 17.0687 21.0834 11.5C21.0834 5.93124 16.5688 1.41666 11 1.41666ZM2.75002 11.5C2.75002 13.4158 3.4036 15.1795 4.49902 16.5802C5.26832 15.5699 6.26076 14.7512 7.39883 14.1879C8.53691 13.6247 9.78979 13.3322 11.0596 13.3333C12.313 13.3321 13.5501 13.6171 14.6767 14.1664C15.8033 14.7157 16.7897 15.5149 17.5606 16.5032C18.3548 15.4615 18.8896 14.2456 19.1207 12.9562C19.3517 11.6668 19.2724 10.3409 18.8893 9.08823C18.5062 7.83555 17.8303 6.69212 16.9176 5.75252C16.0048 4.81293 14.8814 4.10419 13.6404 3.68496C12.3993 3.26572 11.0763 3.14803 9.78073 3.34163C8.48517 3.53523 7.25433 4.03456 6.19006 4.79829C5.12579 5.56202 4.25868 6.5682 3.66048 7.73359C3.06228 8.89897 2.75019 10.19 2.75002 11.5ZM11 19.75C9.10614 19.7528 7.26943 19.1013 5.80069 17.9057C6.39187 17.0593 7.17875 16.3683 8.09436 15.8915C9.00998 15.4146 10.0272 15.1659 11.0596 15.1667C12.0791 15.1658 13.0841 15.4083 13.991 15.8738C14.898 16.3393 15.6809 17.0145 16.2745 17.8433C14.7944 19.0778 12.9274 19.7527 11 19.75Z" fill="#8491A5"/>
</svg>
