<svg width="22" height="23" viewBox="0 0 22 23" fill="none" xmlns="http://www.w3.org/2000/svg">
<path fill-rule="evenodd" clip-rule="evenodd" d="M14.9999 8.5C14.9999 9.56087 14.5785 10.5783 13.8284 11.3284C13.0782 12.0786 12.0608 12.5 10.9999 12.5C9.93907 12.5 8.92166 12.0786 8.17151 11.3284C7.42137 10.5783 6.99994 9.56087 6.99994 8.5C6.99994 7.43913 7.42137 6.42172 8.17151 5.67157C8.92166 4.92143 9.93907 4.5 10.9999 4.5C12.0608 4.5 13.0782 4.92143 13.8284 5.67157C14.5785 6.42172 14.9999 7.43913 14.9999 8.5ZM12.9999 8.5C12.9999 9.03043 12.7892 9.53914 12.4142 9.91421C12.0391 10.2893 11.5304 10.5 10.9999 10.5C10.4695 10.5 9.9608 10.2893 9.58573 9.91421C9.21065 9.53914 8.99994 9.03043 8.99994 8.5C8.99994 7.96957 9.21065 7.46086 9.58573 7.08579C9.9608 6.71071 10.4695 6.5 10.9999 6.5C11.5304 6.5 12.0391 6.71071 12.4142 7.08579C12.7892 7.46086 12.9999 7.96957 12.9999 8.5Z" fill="#8491A5"/>
<path fill-rule="evenodd" clip-rule="evenodd" d="M11 0.5C4.925 0.5 0 5.425 0 11.5C0 17.575 4.925 22.5 11 22.5C17.075 22.5 22 17.575 22 11.5C22 5.425 17.075 0.5 11 0.5ZM2 11.5C2 13.59 2.713 15.514 3.908 17.042C4.74723 15.9399 5.8299 15.0467 7.07143 14.4323C8.31297 13.8179 9.67974 13.4988 11.065 13.5C12.4323 13.4987 13.7819 13.8095 15.0109 14.4088C16.2399 15.008 17.316 15.8799 18.157 16.958C19.0234 15.8216 19.6068 14.4952 19.8589 13.0886C20.111 11.682 20.0244 10.2355 19.6065 8.86898C19.1886 7.50243 18.4512 6.25505 17.4555 5.23004C16.4598 4.20503 15.2343 3.43186 13.8804 2.97451C12.5265 2.51716 11.0832 2.38877 9.66986 2.59997C8.25652 2.81117 6.91379 3.35589 5.75277 4.18905C4.59175 5.02222 3.64581 6.11987 2.99323 7.3912C2.34065 8.66252 2.00018 10.071 2 11.5ZM11 20.5C8.93395 20.5031 6.93027 19.7923 5.328 18.488C5.97293 17.5647 6.83134 16.8109 7.83019 16.2907C8.82905 15.7705 9.93879 15.4992 11.065 15.5C12.1772 15.4991 13.2735 15.7636 14.2629 16.2714C15.2524 16.7793 16.1064 17.5159 16.754 18.42C15.1393 19.7667 13.1026 20.5029 11 20.5Z" fill="#8491A5"/>
</svg>
