<svg width="23" height="24" viewBox="0 0 23 24" fill="none" xmlns="http://www.w3.org/2000/svg">
<path d="M17.25 12.9565H12.4584V17.7481C12.4584 18.0023 12.3574 18.246 12.1777 18.4258C11.9979 18.6055 11.7542 18.7065 11.5 18.7065C11.2459 18.7065 11.0021 18.6055 10.8224 18.4258C10.6427 18.246 10.5417 18.0023 10.5417 17.7481V12.9565H5.75002C5.49585 12.9565 5.2521 12.8555 5.07238 12.6758C4.89265 12.496 4.79169 12.2523 4.79169 11.9981C4.79169 11.744 4.89265 11.5002 5.07238 11.3205C5.2521 11.1408 5.49585 11.0398 5.75002 11.0398H10.5417V6.24813C10.5417 5.99396 10.6427 5.75021 10.8224 5.57048C11.0021 5.39076 11.2459 5.28979 11.5 5.28979C11.7542 5.28979 11.9979 5.39076 12.1777 5.57048C12.3574 5.75021 12.4584 5.99396 12.4584 6.24813V11.0398H17.25C17.5042 11.0398 17.7479 11.1408 17.9277 11.3205C18.1074 11.5002 18.2084 11.744 18.2084 11.9981C18.2084 12.2523 18.1074 12.496 17.9277 12.6758C17.7479 12.8555 17.5042 12.9565 17.25 12.9565Z" fill="#3694E7"/>
</svg>
