<svg width="17" height="16" viewBox="0 0 17 16" fill="none" xmlns="http://www.w3.org/2000/svg">
<path fill-rule="evenodd" clip-rule="evenodd" d="M5.35949 4.2245C4.78559 4.7901 4.34696 5.47811 4.07641 6.2371C3.80585 6.99609 3.71037 7.80641 3.79709 8.6075C3.82215 8.845 3.75184 9.08273 3.60162 9.26839C3.45141 9.45405 3.23359 9.57244 2.99609 9.5975C2.75859 9.62256 2.52086 9.55225 2.33519 9.40204C2.14953 9.25182 2.03115 9.034 2.00609 8.7965C1.89114 7.72641 2.01938 6.64418 2.38124 5.6306C2.7431 4.61701 3.32924 3.69825 4.09589 2.9429C6.91829 0.1601 11.4669 0.2069 14.256 3.0347C17.046 5.8634 17.0289 10.4129 14.2074 13.1957C12.9011 14.4862 11.1474 15.2232 9.31139 15.2531C8.6175 15.2653 7.92548 15.1774 7.25669 14.9921C7.14014 14.963 7.0306 14.9109 6.9345 14.8389C6.83841 14.7668 6.75772 14.6762 6.69718 14.5725C6.63664 14.4687 6.59748 14.3539 6.582 14.2348C6.56652 14.1157 6.57505 13.9947 6.60707 13.8789C6.63909 13.7632 6.69396 13.655 6.76844 13.5607C6.84293 13.4665 6.93552 13.3881 7.04077 13.3303C7.14602 13.2724 7.26178 13.2361 7.38125 13.2237C7.50072 13.2113 7.62147 13.2229 7.73639 13.2578C8.23847 13.397 8.75806 13.4628 9.27899 13.4531C10.653 13.4314 11.9656 12.8801 12.9429 11.9141C15.0516 9.8351 15.0714 6.425 12.9744 4.2992C10.8774 2.1725 7.46729 2.1455 5.35949 4.2245Z" fill="#526581"/>
<path fill-rule="evenodd" clip-rule="evenodd" d="M3.5703 9.5255C3.49171 9.6138 3.3965 9.68575 3.2901 9.73725C3.1837 9.78875 3.06819 9.81878 2.95018 9.82563C2.83218 9.83249 2.71397 9.81603 2.60233 9.77719C2.49068 9.73836 2.38778 9.67791 2.2995 9.5993L0.751497 8.2223C0.573192 8.06357 0.465246 7.8405 0.451406 7.60218C0.437565 7.36386 0.518965 7.1298 0.677697 6.9515C0.836429 6.77319 1.05949 6.66525 1.29781 6.65141C1.53613 6.63757 1.77019 6.71897 1.9485 6.8777L3.4965 8.2547C3.5848 8.33329 3.65675 8.4285 3.70825 8.5349C3.75975 8.6413 3.78978 8.7568 3.79663 8.87481C3.80348 8.99282 3.78702 9.11102 3.74819 9.22267C3.70935 9.33431 3.64891 9.43722 3.5703 9.5255Z" fill="#526581"/>
<path fill-rule="evenodd" clip-rule="evenodd" d="M2.17799 9.44C2.2489 9.53455 2.33774 9.61421 2.43944 9.67443C2.54114 9.73465 2.6537 9.77424 2.77071 9.79096C2.88771 9.80767 3.00686 9.80118 3.12135 9.77184C3.23584 9.74251 3.34343 9.69092 3.43799 9.62L5.23799 8.27C5.42894 8.12678 5.55518 7.91358 5.58894 7.67728C5.6227 7.44098 5.5612 7.20096 5.41799 7.01C5.27477 6.81904 5.06156 6.6928 4.82527 6.65905C4.58897 6.62529 4.34894 6.68678 4.15799 6.83L2.35799 8.18C2.26343 8.25091 2.18378 8.33976 2.12356 8.44146C2.06334 8.54316 2.02375 8.65572 2.00703 8.77272C1.99032 8.88972 1.99681 9.00887 2.02614 9.12336C2.05548 9.23786 2.10707 9.34545 2.17799 9.44ZM8.99999 4.4C9.23868 4.4 9.4676 4.49482 9.63638 4.6636C9.80517 4.83239 9.89999 5.06131 9.89999 5.3V8.45C9.89999 8.6887 9.80517 8.91761 9.63638 9.0864C9.4676 9.25518 9.23868 9.35 8.99999 9.35C8.76129 9.35 8.53237 9.25518 8.36359 9.0864C8.19481 8.91761 8.09999 8.6887 8.09999 8.45V5.3C8.09999 5.06131 8.19481 4.83239 8.36359 4.6636C8.53237 4.49482 8.76129 4.4 8.99999 4.4Z" fill="#526581"/>
<path fill-rule="evenodd" clip-rule="evenodd" d="M12.6 8.45C12.6 8.6887 12.5052 8.91761 12.3364 9.0864C12.1676 9.25518 11.9387 9.35 11.7 9.35H8.99998C8.76128 9.35 8.53236 9.25518 8.36358 9.0864C8.1948 8.91761 8.09998 8.6887 8.09998 8.45C8.09998 8.21131 8.1948 7.98239 8.36358 7.81361C8.53236 7.64482 8.76128 7.55 8.99998 7.55H11.7C11.9387 7.55 12.1676 7.64482 12.3364 7.81361C12.5052 7.98239 12.6 8.21131 12.6 8.45Z" fill="#526581"/>
</svg>
