<svg width="22" height="22" viewBox="0 0 22 22" fill="none" xmlns="http://www.w3.org/2000/svg">
<path fill-rule="evenodd" clip-rule="evenodd" d="M15.125 2.0625C14.6891 2.06235 14.2585 2.15785 13.8636 2.34226C13.4687 2.52666 13.119 2.79548 12.8393 3.12975C12.5595 3.46402 12.3566 3.8556 12.2447 4.27687C12.1328 4.69813 12.1147 5.13881 12.1917 5.56783L7.85583 8.60383C7.83415 8.61883 7.81334 8.63505 7.7935 8.65242C7.35362 8.30856 6.82597 8.09523 6.27072 8.03676C5.71546 7.97829 5.15495 8.07702 4.65309 8.32171C4.15124 8.5664 3.72824 8.94719 3.43234 9.42066C3.13644 9.89412 2.97955 10.4412 2.97955 10.9995C2.97955 11.5579 3.13644 12.105 3.43234 12.5784C3.72824 13.0519 4.15124 13.4327 4.65309 13.6774C5.15495 13.9221 5.71546 14.0208 6.27072 13.9623C6.82597 13.9039 7.35362 13.6905 7.7935 13.3467C7.81331 13.3643 7.83412 13.3809 7.85583 13.3962L12.1917 16.4322C12.063 17.1497 12.2018 17.8895 12.5819 18.5116C12.962 19.1336 13.5569 19.5947 14.2541 19.8075C14.9514 20.0204 15.7024 19.9702 16.3651 19.6665C17.0278 19.3629 17.5562 18.8267 17.8502 18.1597C18.1442 17.4926 18.1834 16.7409 17.9604 16.0469C17.7374 15.3528 17.2676 14.7646 16.6401 14.3937C16.0126 14.0227 15.2708 13.8947 14.5553 14.0338C13.8397 14.173 13.2 14.5697 12.7572 15.1488L8.6515 12.2751C8.83483 11.8882 8.9375 11.4565 8.9375 11C8.9375 10.5435 8.83483 10.1108 8.6515 9.72492L12.7582 6.85025C13.0658 7.25291 13.471 7.57046 13.9356 7.77286C14.4001 7.97526 14.9086 8.05582 15.413 8.00694C15.9173 7.95805 16.4009 7.78132 16.8179 7.49347C17.2349 7.20562 17.5716 6.81616 17.7962 6.36191C18.0208 5.90766 18.1257 5.40364 18.1012 4.89752C18.0767 4.39139 17.9235 3.89988 17.6561 3.46946C17.3887 3.03905 17.0159 2.68395 16.573 2.43776C16.1301 2.19157 15.6317 2.06241 15.125 2.0625ZM13.5208 5.04167C13.5208 4.61622 13.6898 4.20819 13.9907 3.90735C14.2915 3.60651 14.6995 3.4375 15.125 3.4375C15.5505 3.4375 15.9585 3.60651 16.2593 3.90735C16.5602 4.20819 16.7292 4.61622 16.7292 5.04167C16.7292 5.46712 16.5602 5.87514 16.2593 6.17598C15.9585 6.47682 15.5505 6.64583 15.125 6.64583C14.6995 6.64583 14.2915 6.47682 13.9907 6.17598C13.6898 5.87514 13.5208 5.46712 13.5208 5.04167ZM5.95833 9.39583C5.53288 9.39583 5.12486 9.56484 4.82402 9.86568C4.52318 10.1665 4.35417 10.5745 4.35417 11C4.35417 11.4255 4.52318 11.8335 4.82402 12.1343C5.12486 12.4352 5.53288 12.6042 5.95833 12.6042C6.38378 12.6042 6.79181 12.4352 7.09265 12.1343C7.39349 11.8335 7.5625 11.4255 7.5625 11C7.5625 10.5745 7.39349 10.1665 7.09265 9.86568C6.79181 9.56484 6.38378 9.39583 5.95833 9.39583ZM15.125 15.3542C14.6995 15.3542 14.2915 15.5232 13.9907 15.824C13.6898 16.1249 13.5208 16.5329 13.5208 16.9583C13.5208 17.3838 13.6898 17.7918 13.9907 18.0926C14.2915 18.3935 14.6995 18.5625 15.125 18.5625C15.5505 18.5625 15.9585 18.3935 16.2593 18.0926C16.5602 17.7918 16.7292 17.3838 16.7292 16.9583C16.7292 16.5329 16.5602 16.1249 16.2593 15.824C15.9585 15.5232 15.5505 15.3542 15.125 15.3542Z" fill="#8491A5"/>
</svg>
