<svg width="22" height="23" viewBox="0 0 22 23" fill="none" xmlns="http://www.w3.org/2000/svg">
<path d="M15.3083 13.7917L18.7916 10.8125L19.3875 10.8583C19.6472 10.8889 19.8498 10.9958 19.9952 11.1792C20.1407 11.3625 20.2131 11.5611 20.2125 11.775C20.2125 11.8972 20.1896 12.0194 20.1437 12.1417C20.0979 12.2639 20.0139 12.3708 19.8916 12.4625L17.5083 14.5479L18.2187 17.6417C18.234 17.6722 18.2416 17.7067 18.2416 17.7452V17.8479C18.2416 18.1076 18.15 18.3255 17.9666 18.5015C17.7833 18.6775 17.5694 18.7652 17.325 18.7646C17.2486 18.7646 17.1685 18.753 17.0848 18.7297C17.0011 18.7065 16.9207 18.6723 16.8437 18.6271L16.3625 18.3292L15.3083 13.7917ZM13.1541 7.09999L12.1916 4.85416L12.3979 4.34999C12.4743 4.16666 12.5925 4.02519 12.7526 3.92557C12.9128 3.82596 13.0771 3.77646 13.2458 3.77707C13.4145 3.77769 13.5789 3.82352 13.739 3.91457C13.8991 4.00563 14.0173 4.14313 14.0937 4.32707L15.3541 7.30624L13.1541 7.09999ZM4.44581 17.6417L5.45414 13.3104L2.08539 10.4C1.96317 10.3083 1.88311 10.2014 1.84523 10.0792C1.80734 9.95694 1.78809 9.83471 1.78748 9.71249C1.78748 9.4986 1.8602 9.29999 2.00564 9.11666C2.15109 8.93332 2.35336 8.82638 2.61248 8.79583L7.05831 8.40624L8.77706 4.32707C8.85345 4.14374 8.972 4.00624 9.13273 3.91457C9.29345 3.82291 9.45753 3.77707 9.62498 3.77707C9.79242 3.77707 9.95681 3.82291 10.1181 3.91457C10.2795 4.00624 10.3977 4.14374 10.4729 4.32707L12.1916 8.40624L16.6375 8.79583C16.8972 8.82638 17.0998 8.93332 17.2452 9.11666C17.3907 9.29999 17.4631 9.4986 17.4625 9.71249C17.4625 9.83471 17.4435 9.95694 17.4056 10.0792C17.3678 10.2014 17.2874 10.3083 17.1646 10.4L13.7958 13.3104L14.8041 17.6417C14.8194 17.6875 14.8271 17.7562 14.8271 17.8479C14.8271 18.1076 14.7354 18.3255 14.5521 18.5015C14.3687 18.6775 14.1548 18.7652 13.9104 18.7646C13.8646 18.7646 13.7041 18.7187 13.4291 18.6271L9.62498 16.3354L5.82081 18.6271C5.74442 18.6729 5.66436 18.7074 5.58064 18.7307C5.49692 18.7539 5.41656 18.7652 5.33956 18.7646C5.06456 18.7646 4.82775 18.6537 4.62914 18.4318C4.43053 18.21 4.36942 17.9466 4.44581 17.6417Z" fill="#8491A5"/>
</svg>
