<svg width="22" height="23" viewBox="0 0 22 23" fill="none" xmlns="http://www.w3.org/2000/svg">
<path d="M5.49998 18.8333C4.49165 18.8333 3.62845 18.4743 2.9104 17.7562C2.19234 17.0382 1.83331 16.175 1.83331 15.1667V7.83333C1.83331 6.825 2.19234 5.9618 2.9104 5.24375C3.62845 4.52569 4.49165 4.16666 5.49998 4.16666H16.5C17.5083 4.16666 18.3715 4.52569 19.0896 5.24375C19.8076 5.9618 20.1666 6.825 20.1666 7.83333V15.1667C20.1666 16.175 19.8076 17.0382 19.0896 17.7562C18.3715 18.4743 17.5083 18.8333 16.5 18.8333H5.49998ZM5.49998 7.83333H16.5C16.8361 7.83333 17.1569 7.87153 17.4625 7.94791C17.768 8.0243 18.0583 8.14652 18.3333 8.31458V7.83333C18.3333 7.32916 18.154 6.89772 17.7952 6.539C17.4365 6.18028 17.0048 6.00061 16.5 6H5.49998C4.99581 6 4.56437 6.17966 4.20565 6.539C3.84692 6.89833 3.66726 7.32978 3.66665 7.83333V8.31458C3.94165 8.14652 4.23192 8.0243 4.53748 7.94791C4.84304 7.87153 5.16387 7.83333 5.49998 7.83333ZM3.80415 10.8125L14.0021 13.2875C14.1396 13.3181 14.2771 13.3181 14.4146 13.2875C14.5521 13.2569 14.6819 13.1958 14.8041 13.1042L17.9896 10.4458C17.8215 10.2167 17.6076 10.0297 17.3479 9.88483C17.0882 9.74 16.8055 9.66728 16.5 9.66666H5.49998C5.10276 9.66666 4.75534 9.76994 4.45773 9.9765C4.16012 10.1831 3.94226 10.4617 3.80415 10.8125Z" fill="#8491A5"/>
</svg>
