<svg width="22" height="23" viewBox="0 0 22 23" fill="none" xmlns="http://www.w3.org/2000/svg">
<path d="M10.0833 17.9167C8.55554 17.9167 7.25692 17.3819 6.18748 16.3125C5.11804 15.2431 4.58331 13.9444 4.58331 12.4167C4.58331 12.2486 4.59095 12.0806 4.60623 11.9125C4.62151 11.7444 4.64442 11.5764 4.67498 11.4083C4.59859 11.4389 4.50692 11.4618 4.39998 11.4771C4.29304 11.4924 4.20137 11.5 4.12498 11.5C3.48331 11.5 2.94095 11.2785 2.4979 10.8354C2.05484 10.3924 1.83331 9.85001 1.83331 9.20834C1.83331 8.56667 2.04354 8.02431 2.46398 7.58126C2.88442 7.1382 3.41517 6.91667 4.05623 6.91667C4.5604 6.91667 5.01506 7.05784 5.42023 7.34017C5.8254 7.62251 6.1117 7.9855 6.27915 8.42917C6.78331 7.97084 7.3602 7.60417 8.00981 7.32917C8.65942 7.05417 9.35059 6.91667 10.0833 6.91667H20.1666V10.5833H15.5833V12.4167C15.5833 13.9444 15.0486 15.2431 13.9791 16.3125C12.9097 17.3819 11.6111 17.9167 10.0833 17.9167ZM4.12498 10.125C4.3847 10.125 4.60256 10.037 4.77856 9.86101C4.95456 9.685 5.04226 9.46745 5.04165 9.20834C5.04104 8.94923 4.95304 8.73167 4.77765 8.55567C4.60226 8.37967 4.3847 8.29167 4.12498 8.29167C3.86526 8.29167 3.6477 8.37967 3.47231 8.55567C3.29692 8.73167 3.20892 8.94923 3.20831 9.20834C3.2077 9.46745 3.2957 9.68531 3.47231 9.86192C3.64892 10.0385 3.86648 10.1262 4.12498 10.125ZM10.0833 14.25C10.5875 14.25 11.0192 14.0706 11.3786 13.7119C11.7379 13.3532 11.9173 12.9214 11.9166 12.4167C11.916 11.9119 11.7367 11.4804 11.3786 11.1223C11.0205 10.7642 10.5887 10.5846 10.0833 10.5833C9.57792 10.5821 9.14648 10.7618 8.78898 11.1223C8.43148 11.4829 8.25181 11.9143 8.24998 12.4167C8.24815 12.919 8.42781 13.3508 8.78898 13.7119C9.15015 14.0731 9.58159 14.2524 10.0833 14.25Z" fill="#8491A5"/>
</svg>
