<svg width="77" height="82" viewBox="0 0 77 82" fill="none" xmlns="http://www.w3.org/2000/svg">
<path d="M22.2709 77.7659L28.7625 70.8158C29.2898 70.2074 29.9814 69.7905 30.7407 69.6233C31.5001 69.4562 32.2892 69.5471 32.9979 69.8835C35.9624 71.3613 39.1884 72.1417 42.4584 72.1719C42.5897 72.1916 42.7229 72.1916 42.8542 72.1719C47.5908 72.1865 52.2132 70.6159 56.075 67.6798C63.482 62.0057 69.4869 54.4858 73.5709 45.7701C76.0988 40.2415 76.9577 34.0079 76.0286 27.9333C75.0995 21.8587 72.4284 16.2439 68.3854 11.8673L65.7334 9.02793C61.6299 4.65396 56.3496 1.76626 50.6343 0.770515C44.919 -0.225228 39.0559 0.721028 33.8688 3.47634L33.1959 3.90013C31.0044 1.63854 28.0854 0.364236 25.0417 0.340332C22.9413 0.357158 20.8827 0.970109 19.0759 2.11667C17.269 3.26322 15.7785 4.90235 14.7564 6.86688C13.7343 8.8314 13.2172 11.051 13.2578 13.2993C13.2984 15.5476 13.8952 17.7442 14.9875 19.6649C14.4333 20.4277 13.8396 21.1058 13.325 21.8686C12.2833 23.4727 11.4323 25.2094 10.7917 27.0388V27.4202C10.5146 28.183 10.2771 28.9882 10.0396 29.8358V30.4715C9.7232 31.7903 9.5244 33.1383 9.44585 34.4974V37.1249C9.44585 38.0148 9.44585 38.8624 9.68335 39.7523V40.4728C10.0175 42.5564 10.6169 44.5812 11.4646 46.4905C11.7508 47.2514 11.8246 48.0849 11.677 48.8898C11.5295 49.6947 11.1669 50.4364 10.6333 51.025L4.85419 57.2123C2.33791 59.8968 0.915042 63.5376 0.895854 67.3408C0.927798 70.5309 2.13736 73.5778 4.26044 75.8165L5.7646 77.4268C7.93756 79.7643 10.8739 81.1064 13.9537 81.1697C17.0335 81.2329 20.0158 80.0124 22.2709 77.7659ZM21.0042 12.9267C21.0042 12.0886 21.2363 11.2692 21.6713 10.5723C22.1062 9.87541 22.7244 9.33224 23.4477 9.01149C24.171 8.69073 24.9669 8.60681 25.7348 8.77033C26.5026 8.93385 27.2079 9.33746 27.7615 9.93014C28.3151 10.5228 28.6921 11.2779 28.8448 12.1C28.9975 12.922 28.9191 13.7741 28.6195 14.5485C28.3199 15.3229 27.8126 15.9847 27.1617 16.4504C26.5107 16.9161 25.7454 17.1646 24.9625 17.1646C23.9127 17.1646 22.9059 16.7181 22.1636 15.9234C21.4212 15.1286 21.0042 14.0507 21.0042 12.9267ZM20.45 26.0641L21.2417 24.9622C22.4392 25.4035 23.696 25.6326 24.9625 25.6403C28.112 25.6403 31.1324 24.3008 33.3594 21.9166C35.5864 19.5323 36.8375 16.2986 36.8375 12.9267V11.3164L37.4709 10.935C41.1737 8.96385 45.3602 8.28399 49.4425 8.99088C53.5247 9.69776 57.2976 11.7559 60.2313 14.8762L62.8834 17.7155C65.7312 20.8967 67.5819 24.9492 68.1778 29.3091C68.7738 33.669 68.0853 38.1194 66.2084 42.0408C62.8825 49.1596 58.0423 55.3432 52.0771 60.094L20.45 26.0641ZM11.0688 71.7481L9.56461 70.1801C7.90211 68.4002 8.21877 65.6456 10.3563 63.3572L16.0959 57.1699C17.7867 55.3478 18.9224 53.0202 19.3534 50.4936C19.7844 47.967 19.4905 45.3598 18.5104 43.0155C17.8989 41.6794 17.4849 40.2498 17.2834 38.7776C17.1389 37.9677 17.0726 37.1441 17.0854 36.3197V34.455L44.2792 63.5691C41.5671 63.8657 38.8307 63.3677 36.3625 62.1282C34.1728 61.0789 31.7376 60.7643 29.3777 61.2257C27.0177 61.6872 24.8436 62.9031 23.1417 64.7133L16.6104 71.6634C15.8809 72.4513 14.8919 72.9015 13.8558 72.9173C12.8196 72.9332 11.819 72.5134 11.0688 71.7481Z" fill="#5FA2DD"/>
</svg>
