<svg width="649" height="477" viewBox="0 0 649 477" fill="none" xmlns="http://www.w3.org/2000/svg">
<path fill-rule="evenodd" clip-rule="evenodd" d="M244.784 471.67C352.624 501.997 405.096 385.618 497.495 394.473C548.075 399.319 648.892 423.885 648.667 244.941C648.102 129.414 541.62 100.485 431.813 159.731C399.502 172.367 373.991 168.451 346.294 155.896C318.596 143.341 282.974 87.2904 215.836 75.7595C13.797 41.0597 -159.074 358.1 244.784 471.67Z" fill="#3694E7"/>
<path fill-rule="evenodd" clip-rule="evenodd" d="M501.053 181.025C503.077 180.041 506.707 181.949 504.601 185.018C499.939 191.817 517.971 205.396 512.183 193.43C511.564 192.15 508.389 183.302 512.881 187.871C517.372 192.439 523.633 212.625 519.584 219.58C516.029 225.684 506.624 228.588 493.786 228.932L493.207 228.944L492.934 228.961C485.366 229.313 479.626 224.629 475.921 215.507L475.744 215.062C471.994 205.514 473.022 197.86 479.087 192.699C479.197 192.605 479.314 192.521 479.439 192.447L479.629 192.344L501.053 181.025Z" fill="white"/>
<path fill-rule="evenodd" clip-rule="evenodd" d="M92.1723 2.33063C91.289 1.07882 89.8591 0.357174 88.3304 0.543505C86.7667 0.733953 85.4582 1.82208 84.9816 3.32302L84.855 3.72451C84.7582 4.01996 84.6439 4.35969 84.5091 4.74161C84.1261 5.83077 83.6598 7.04038 83.11 8.34057C81.5473 12.0384 79.6233 15.729 77.3276 19.1612C72.3729 26.5691 66.402 31.7256 59.4038 33.7114C58.3105 34.0213 57.6754 35.1599 57.9852 36.2542C58.1427 36.809 68.3642 41.9172 78.7977 40.6293C88.9182 39.3806 99.2632 31.7503 99.3466 31.2315L99.4742 30.1495L99.5102 29.7872C100.235 21.9263 98.8586 13.0462 93.5652 4.4441C93.1256 3.72966 92.6613 3.02551 92.1723 2.33063Z" fill="#E7EAEE"/>
<path fill-rule="evenodd" clip-rule="evenodd" d="M113.233 4.61804L113.179 5.03394C112.445 10.3562 110.392 17.7672 106.675 23.3582C102.101 30.2411 95.6457 35.5047 89.1581 38.8978C79.7983 43.7908 69.6119 44.6864 59.5809 38.3295L59.1382 38.0444C53.8674 34.5967 49.867 32.9372 44.379 34.3064C38.8899 35.6766 36.2247 39.674 33.8555 43.3831L33.7469 43.5396C33.3671 44.0471 32.8115 44.3981 32.1854 44.5217L21.7793 46.1698L25.5688 50.8775C26.7093 52.3054 27.5201 53.3338 28.001 53.9638L32.1662 59.4508C44.5797 75.7326 57.9389 91.2773 83.9902 85.8964L84.8735 85.707C91.775 84.1721 97.5615 88.293 104.821 94.3657L106.373 95.6721C108.293 97.2976 114.099 102.415 116.475 104.879L117.251 105.694L117.967 106.465C118.117 106.628 118.259 106.784 118.394 106.933L119.135 107.768L119.59 107.232C124.503 101.316 127.581 92.3047 129.175 84.8721C129.776 82.0637 130.122 79.3748 130.266 76.8938L130.284 76.5706C130.321 75.8448 130.337 75.2117 130.34 74.6836V74.2903L129.598 74.5086C121.006 76.9453 111.339 77.1872 101.906 76.0991C99.6276 75.8356 124.624 55.5904 119.493 29.3712C118.323 23.3963 117.581 15.4067 115.539 9.98355C114.894 8.2726 114.227 6.70886 113.565 5.31086L113.233 4.61804Z" fill="white"/>
<path fill-rule="evenodd" clip-rule="evenodd" d="M502.14 184.263L480.754 194.659C475.628 199.021 474.756 205.509 478.139 214.121C479.326 217.143 482.295 224.341 482.295 221.514C482.295 220.631 502.14 207.659 505.947 208.928C509.468 210.102 503.144 199.523 501.37 194.659L502.14 183.997L502.728 182.935" fill="#E7EAEE"/>
<path fill-rule="evenodd" clip-rule="evenodd" d="M473.607 192.065C475.028 192.065 466.975 195.853 467.39 202.839C467.804 209.824 473.264 222.699 471.936 223.207C470.609 223.714 468.092 219.961 467.584 218.633C464.427 210.372 463.829 207.001 463.942 202.182C464.09 195.875 467.407 192.065 473.607 192.065Z" fill="#E7EAEE"/>
<path d="M509.447 211.543C512.518 211.543 515.007 205.921 515.007 198.985C515.007 192.049 512.518 186.426 509.447 186.426C506.377 186.426 503.888 192.049 503.888 198.985C503.888 205.921 506.377 211.543 509.447 211.543Z" fill="#E7EAEE"/>
<path fill-rule="evenodd" clip-rule="evenodd" d="M121.141 331.396C121.141 309.606 123.562 300.132 149.561 288.239C202.846 266.702 202.846 265.871 304.926 226.405C331.922 216.021 388.836 240.895 413.585 230.471C430.084 223.522 445.513 218.361 459.144 211.469C460.464 220.089 468.997 234.682 472.003 237.191C456.041 240.541 440.6 245.721 425.68 252.733C393.428 267.888 412.54 263.758 361.455 311.932C357.127 316.015 341.217 325.323 318.214 335.02C318.214 335.02 271.889 328.799 253.309 321.071C234.4 313.206 205.75 288.239 205.75 288.239C205.75 288.239 172.333 310.04 153.122 319.839C144.131 324.426 121.141 331.396 121.141 331.396Z" fill="white"/>
<path fill-rule="evenodd" clip-rule="evenodd" d="M121.14 320.072C121.14 314.958 120.6 311.388 121.14 307.44C122.903 294.567 129.806 287.982 149.702 278.881C202.987 257.343 202.845 254.547 304.925 215.081C331.92 204.697 388.835 229.571 413.584 219.147C430.083 212.198 445.512 207.037 459.143 200.145C459.182 200.392 457.764 212.171 457.764 212.171C457.764 212.171 424.112 229.941 401.852 233.709C378.202 237.713 345.716 219.147 313.278 228.278C263.881 242.184 150.047 285.89 136.58 296.844C125.999 305.45 121.14 320.072 121.14 320.072Z" fill="#E7EAEE"/>
<path fill-rule="evenodd" clip-rule="evenodd" d="M92.1723 2.33063C91.289 1.07882 89.8591 0.357174 88.3304 0.543505C86.7667 0.733953 85.4582 1.82208 84.9816 3.32302L84.855 3.72451C84.7582 4.01996 84.6439 4.35969 84.5091 4.74161C84.1261 5.83077 83.6598 7.04038 83.11 8.34057C81.5473 12.0384 79.6233 15.729 77.3276 19.1612C72.3729 26.5691 66.402 31.7256 59.4038 33.7114C58.3105 34.0213 57.6754 35.1599 57.9852 36.2542C58.2961 37.3474 75.2996 29.5988 80.7495 21.4507C83.2037 17.7827 85.2451 13.8667 86.9036 9.94447C87.4039 8.7606 87.8393 7.6457 88.212 6.61727L88.3932 6.10975C88.5394 5.69591 88.665 5.32428 88.771 4.99588C88.7978 4.7622 88.8235 4.68396 88.8462 4.76117C100.642 12.83 96.005 32.856 97.1373 32.9538C98.2193 33.0464 99.1767 32.2856 99.3466 31.2315L99.4742 30.1495L99.5102 29.7872C100.235 21.9263 98.8586 13.0462 93.5652 4.4441C93.1256 3.72966 92.6613 3.02551 92.1723 2.33063Z" fill="#E7EAEE"/>
<path fill-rule="evenodd" clip-rule="evenodd" d="M116.732 2.27094L116.991 2.73522L117.308 3.33025C117.5 3.69673 117.714 4.1219 117.948 4.60265C118.757 6.26727 119.573 8.15117 120.356 10.2286C122.559 16.0759 124.098 22.3864 124.624 28.9615C125.337 37.8838 124.049 46.3037 120.787 53.9639L120.508 54.6073C117.858 60.5915 113.998 66.0743 108.986 70.9931L108.489 71.4738L108.911 71.4944C116.129 71.7981 123.266 71.1516 129.539 69.1514C130.885 68.7221 132.352 68.9434 133.511 69.7495C134.668 70.5545 135.387 71.8496 135.459 73.2568L135.475 73.6933L135.485 74.2708V74.4932C135.485 75.2982 135.462 76.2021 135.404 77.1914C135.247 79.9246 134.868 82.8729 134.208 85.951C132.344 94.6468 128.617 102.791 122.526 109.653C121.717 110.564 120.58 111.11 119.37 111.175L119.091 111.181C117.801 111.157 116.621 110.623 115.783 109.712L115.169 108.998L114.869 108.657L114.229 107.947L113.529 107.191C113.285 106.932 113.032 106.666 112.77 106.394C110.534 104.075 108.065 101.776 105.443 99.6602C98.1771 93.7965 91.1676 90.4857 85.1813 90.845C75.3902 91.4328 67.2812 90.9758 59.7579 88.8644C50.0327 86.1363 42.3952 80.7821 37.3416 72.2583L37.0583 71.7723C34.4419 67.2098 30.5775 61.9534 26.0192 56.4829C24.6105 54.7915 23.221 53.1835 21.8966 51.697L21.3331 51.067C20.4309 50.0633 19.6917 49.2634 19.3818 48.9381C18.2379 47.7326 17.8403 46.0031 18.3401 44.4219L18.4135 44.2077C18.9625 42.7305 20.2393 41.6351 21.7955 41.3273L30.1406 39.6781L30.2378 39.5381C33.2238 35.2937 37.4872 31.6989 43.1508 30.2504C49.0578 28.7402 55.2736 30.0538 61.5337 34.0254L61.9702 34.3065C70.4251 39.8367 78.8049 39.5309 86.7728 35.3658C92.4636 32.3896 97.8888 27.336 101.998 21.1521C105.821 15.4016 108.092 9.25474 108.254 4.40294C108.321 2.37594 109.72 0.635142 111.687 0.138946C113.655 -0.359309 115.714 0.512636 116.732 2.27094ZM113.233 4.61809L113.179 5.03399C112.446 10.3563 110.392 17.7673 106.676 23.3582C102.101 30.2412 95.6457 35.5048 89.1581 38.8978C79.7993 43.7908 69.6119 44.6864 59.5809 38.3296L59.1382 38.0444C53.8674 34.5968 49.867 32.9373 44.379 34.3065C38.8909 35.6767 36.2248 39.674 33.8556 43.3831L33.747 43.5396C33.3672 44.0472 32.8117 44.3982 32.1855 44.5217L21.7794 46.1699L25.5689 50.8776C26.7095 52.3054 27.5202 53.3338 28.0011 53.9639L32.1664 59.4519C44.5797 75.7327 57.9389 91.2774 83.9902 85.8964L84.8735 85.707C91.7749 84.1721 97.5615 88.293 104.821 94.3657L106.373 95.6721C108.292 97.2976 114.099 102.415 116.475 104.88L117.251 105.694L117.967 106.465C118.117 106.628 118.259 106.784 118.395 106.933L119.135 107.768L119.59 107.232C124.503 101.316 127.581 92.3048 129.175 84.8721C129.777 82.0638 130.122 79.3749 130.266 76.8939L130.284 76.5706C130.321 75.8449 130.337 75.2118 130.34 74.6836V74.2904L129.598 74.5086C121.006 76.9454 111.339 77.1873 101.906 76.0991C99.6276 75.8366 124.624 55.5904 119.493 29.3713C118.323 23.3963 117.581 15.4067 115.539 9.98359C114.895 8.27264 114.227 6.7089 113.565 5.31091L113.233 4.61809Z" fill="#E7EAEE"/>
<path fill-rule="evenodd" clip-rule="evenodd" d="M47.982 50.9579C49.9688 50.9579 51.5851 49.3416 51.5851 47.3548C51.5851 45.3679 49.9688 43.7517 47.982 43.7517C45.9951 43.7517 44.3789 45.3679 44.3789 47.3548C44.3789 49.3416 45.9951 50.9579 47.982 50.9579Z" fill="#00160A"/>
<path d="M51.0704 65.3703C54.1975 65.3703 56.7324 63.2962 56.7324 60.7378C56.7324 58.1793 54.1975 56.1052 51.0704 56.1052C47.9434 56.1052 45.4084 58.1793 45.4084 60.7378C45.4084 63.2962 47.9434 65.3703 51.0704 65.3703Z" fill="#5FA2DD"/>
<path d="M51.0704 65.3703C54.1975 65.3703 56.7324 63.2962 56.7324 60.7378C56.7324 58.1793 54.1975 56.1052 51.0704 56.1052C47.9434 56.1052 45.4084 58.1793 45.4084 60.7378C45.4084 63.2962 47.9434 65.3703 51.0704 65.3703Z" fill="#EB4335"/>
<path fill-rule="evenodd" clip-rule="evenodd" d="M116.733 2.27094L116.992 2.73522L117.31 3.33025C117.5 3.69673 117.715 4.1219 117.949 4.60265C118.758 6.26727 119.574 8.15117 120.357 10.2286C122.56 16.0759 124.099 22.3864 124.625 28.9615C125.338 37.8838 124.05 46.3037 120.788 53.9639L120.509 54.6073C117.859 60.5915 113.999 66.0743 108.986 70.9931L108.49 71.4738L108.912 71.4944C116.13 71.7981 123.266 71.1516 129.54 69.1514C130.886 68.7221 132.353 68.9434 133.512 69.7495C134.669 70.5545 135.388 71.8496 135.46 73.2568L135.476 73.6933L135.487 74.2708V74.4932C135.487 75.2982 135.463 76.2021 135.405 77.1914C135.247 79.9246 134.868 82.8729 134.209 85.951C132.345 94.6468 128.618 102.791 122.527 109.653C121.718 110.564 120.58 111.11 119.372 111.175L119.093 111.181C117.801 111.157 116.622 110.623 115.784 109.712L115.17 108.998L114.87 108.657L114.23 107.947L113.529 107.191C113.286 106.932 113.033 106.666 112.771 106.394C110.534 104.075 108.066 101.776 105.444 99.6602C98.1771 93.7965 91.1686 90.4857 85.1824 90.845C75.3902 91.4328 67.2822 90.9758 59.759 88.8644C50.0327 86.1363 42.3963 80.7821 37.3425 72.2583L37.0592 71.7723C34.4427 67.2098 30.5784 61.9534 26.02 56.4829C24.6113 54.7915 23.2219 53.1835 21.8975 51.697L21.334 51.067C20.4318 50.0633 19.6925 49.2634 19.3828 48.9381C18.2387 47.7326 17.8411 46.0031 18.3409 44.4219L18.4143 44.2077C18.9634 42.7305 20.2403 41.6351 21.7965 41.3273L30.1415 39.6781L30.2387 39.5381C33.2247 35.2937 37.488 31.6989 43.1509 30.2504C48.7253 28.8246 54.5757 29.9148 60.4776 33.38C67.0146 31.1883 72.6282 26.1882 77.3276 19.1622C79.6243 15.729 81.5484 12.0384 83.1111 8.34162C83.6608 7.04039 84.1261 5.83182 84.5101 4.74163C84.645 4.36073 84.7593 4.021 84.856 3.72452L84.9827 3.32304C85.4583 1.82209 86.7667 0.733966 88.3315 0.544547C89.8592 0.357187 91.2901 1.07883 92.1723 2.33168C92.6624 3.02553 93.1266 3.7307 93.5662 4.44514C97.6748 11.1222 99.4238 17.967 99.6616 24.3723C100.479 23.3397 101.26 22.2639 102 21.1521C105.821 15.4016 108.093 9.25474 108.254 4.40294C108.322 2.37594 109.721 0.635142 111.688 0.138946C113.656 -0.359309 115.715 0.512636 116.733 2.27094ZM86.7739 35.3658C79.0345 39.4115 70.9059 39.8161 62.6981 34.7677C68.2242 32.2126 77.0909 26.9222 80.7506 21.4517C83.2038 17.7838 85.2462 13.8667 86.9036 9.94448C87.4039 8.76164 87.8394 7.64674 88.2131 6.61729L88.3943 6.11079C88.5394 5.69592 88.665 5.32429 88.7721 4.99693C88.7988 4.76221 88.8235 4.68398 88.8472 4.76118C96.6875 10.1257 97.2671 20.7722 97.1075 27.3371C93.9564 30.7003 90.4202 33.4592 86.7739 35.3658ZM89.1591 38.8978C92.299 37.2548 95.4326 35.1743 98.3491 32.683C98.5724 32.5533 98.7711 32.3804 98.9317 32.1765C101.814 29.6348 104.465 26.6854 106.676 23.3582C110.393 17.7673 112.446 10.3563 113.18 5.03399L113.234 4.61809L113.566 5.31091C114.228 6.7089 114.895 8.27264 115.54 9.98359C116.962 13.7576 117.753 18.7741 118.498 23.49V23.491C118.822 25.551 119.138 27.5543 119.494 29.3713C123.427 49.4672 109.661 66.0538 104.042 72.8234C102.33 74.8865 101.375 76.0374 101.907 76.0991C111.34 77.1873 121.006 76.9454 129.599 74.5086L130.341 74.2904V74.6836C130.338 75.2118 130.322 75.8449 130.285 76.5706L130.267 76.8939C130.123 79.3749 129.777 82.0638 129.176 84.8721C127.582 92.3048 124.504 101.316 119.591 107.232L119.136 107.768L118.395 106.933C118.26 106.784 118.118 106.628 117.968 106.465L117.252 105.694L116.476 104.88C114.1 102.415 108.294 97.2976 106.374 95.6721L104.822 94.3657C97.5626 88.293 91.776 84.1721 84.8746 85.707L83.9913 85.8964C57.94 91.2774 44.5808 75.7327 32.1672 59.4519L28.002 53.9639C27.5211 53.3338 26.7104 52.3054 25.5699 50.8776L21.7802 46.1699L32.1864 44.5217C32.8126 44.3982 33.3681 44.0472 33.7479 43.5396L33.8564 43.3831C36.2257 39.674 38.891 35.6767 44.38 34.3065C49.868 32.9373 53.8685 34.5968 59.1393 38.0444L59.5819 38.3296C69.6129 44.6864 79.7994 43.7908 89.1591 38.8978ZM501.053 181.025C503.077 180.041 506.707 181.948 504.601 185.019C501.414 189.667 504.955 200.46 507.113 207.033V207.034V207.035C508.11 210.075 508.812 212.212 508.414 212.421C507.154 213.079 505.599 212.592 504.941 211.332C501.376 204.511 499.328 199.094 498.817 194.976C498.564 192.928 498.508 190.946 498.651 189.033L498.67 188.813L482.189 196.824L481.98 197.016C478.259 200.505 476.622 204.557 479.345 211.735L479.506 212.152C482.461 219.677 487.465 225.074 492.671 224.85L493.077 224.829C504.645 224.597 511.559 221.116 514.027 216.877C517.129 211.547 517.971 205.397 512.183 193.43C511.564 192.151 508.389 183.303 512.881 187.871C517.372 192.439 523.633 212.625 519.584 219.58C516.203 225.386 507.528 228.297 495.638 228.863C495.707 229.165 495.723 229.487 495.675 229.812C494.549 237.454 491.06 242.262 485.228 243.653C480.767 244.716 475.973 243.308 471.581 239.913C456.153 243.226 441.218 248.275 426.776 255.062L424.637 256.075C417.268 259.595 413.043 261.954 409.958 264.248C408.148 265.592 406.654 266.971 405.047 268.744L404.787 269.039C404.007 269.943 402.308 272.017 400.376 274.379L400.372 274.383L400.37 274.386L400.369 274.387L400.368 274.389L400.362 274.396L400.359 274.4C397.786 277.541 394.805 281.184 393.024 283.246L392.163 284.237C384.915 292.542 375.779 301.964 363.223 313.806L362.871 314.128C358.163 318.334 345.653 325.447 330.053 332.619C373.106 331.089 404.151 314.657 423.484 283.294C424.334 281.913 426.234 281.654 427.424 282.756C460.668 313.544 499.187 327.793 543.13 325.568C587.19 323.337 619.523 311.885 640.228 291.326C641.236 290.324 642.866 290.33 643.867 291.339C644.869 292.347 644.863 293.977 643.855 294.978C622.134 316.546 576.02 332.73 530.797 335.02C486.818 337.246 460.576 319.126 427.023 289.342L426.204 288.609L425.911 289.06C404.66 321.264 358.492 344.753 312.419 345.086L310.974 345.091C263.849 345.091 236.67 322.272 204.877 291.084L204.629 290.84L204.515 290.937L203.685 291.636L202.477 292.651L201.738 293.273C171.947 318.344 149.718 337.051 116.279 341.83L115.213 341.979C77.5109 349.606 20.3306 329.288 11.5436 319.328C3.49253 310.203 12.8833 315.875 15.4614 317.433H15.4616C15.6971 317.575 15.8757 317.683 15.979 317.741C40.9324 332.028 69.7035 337.469 104.223 332.761C108.986 332.111 113.721 331.251 118.424 330.18L118.37 329.673C116.863 315.358 116.853 309.101 119.026 301.92C121.979 292.152 129.151 284.73 142.052 278.829L145.605 277.258C161.541 270.235 174.197 264.962 187.325 259.839L188.286 259.464C189.758 258.892 191.25 258.315 192.773 257.732L194.264 257.162C194.803 256.972 201.818 254.19 212.485 249.961L212.49 249.96L212.517 249.949L212.523 249.947L212.525 249.946C237.183 240.17 281.302 222.68 310.084 211.551C316.31 209.157 323.849 208.361 333.095 208.839L333.892 208.883C340.819 209.291 347.632 210.231 358.801 212.163L368.614 213.882C379.572 215.778 384.882 216.527 391.081 216.968C393.03 217.107 394.882 217.279 396.641 217.443H396.642C403.161 218.048 408.407 218.536 412.587 216.776C416.306 215.21 419.95 213.698 423.521 212.216H423.522C435.203 207.371 446.099 202.851 456.21 197.825C456.904 193.328 458.676 190.008 461.452 187.821C465.735 184.449 471.797 184.392 477.056 186.437C478.381 186.953 479.036 188.444 478.522 189.768C478.355 190.197 477.284 190 475.769 189.721C472.6 189.136 467.489 188.193 464.636 191.865C461.464 195.951 460.41 202.209 463.22 214.532C465.256 223.462 478.458 238.647 484.033 238.647C490.25 238.647 491.704 232.611 492.528 229.188L492.58 228.974C485.186 229.165 479.569 224.486 475.922 215.508L475.744 215.063C471.994 205.514 473.022 197.86 479.087 192.699C479.197 192.605 479.315 192.521 479.439 192.448L479.63 192.345L501.053 181.025ZM466.832 235.26C466.572 234.945 466.314 234.621 466.06 234.291C465.962 234.188 465.871 234.084 465.79 233.987C465.556 233.702 465.316 233.413 465.07 233.118C463.076 230.723 460.765 227.946 458.955 223.944L458.692 223.36C455.789 216.857 455.443 209.552 455.622 203.529L455.648 202.83L455.495 202.907C443.501 208.843 430.454 214.798 416.353 220.772L414.586 221.52C408.548 224.062 401.008 225.859 391.454 225.241L390.716 225.191C384.188 224.725 378.698 223.945 367.185 221.947L358.59 220.44C334.36 216.245 322.235 215.59 312.245 219.326C312.245 219.326 163.249 275.374 144.166 283.521C132.561 288.83 128.623 293.826 123.824 301.92C121.341 306.107 121.592 317.656 121.767 325.677V325.68C121.796 327.024 121.823 328.27 121.835 329.365C150.007 322.319 177.088 307.671 203.095 285.391C204.12 284.513 205.65 284.576 206.599 285.535C208.703 287.663 210.842 289.718 213.017 291.7L320.31 246.875C320.605 246.751 320.908 246.688 321.209 246.676C322.017 246.295 322.889 245.98 323.824 245.731C333.18 243.244 340.651 247.291 345.813 257.252L355.166 250.43C356.545 249.424 358.504 250.015 359.096 251.616C367.63 274.68 365.144 290.485 351.091 298.111C336.918 305.801 324.594 299.459 314.985 280.239C314.498 279.264 314.69 278.136 315.364 277.377C313.073 268.071 312.648 260.657 314.207 255.289L220.203 297.89C234.259 309.301 249.694 317.908 266.518 323.713C266.903 323.345 267.32 323.028 267.73 322.804C281.901 315.041 316.816 305.974 325.441 303.734C326.187 303.54 326.736 303.397 327.058 303.311C331.105 302.227 326.96 306.008 325.738 306.572L325.582 306.638L274.622 326.261C289.782 330.58 306.014 332.737 323.328 332.737C324.313 332.737 325.291 332.73 326.264 332.715L327.403 331.974H327.404L327.405 331.973L327.407 331.972C338.305 324.888 356.527 313.044 359.691 310.061L361.167 308.665C371.659 298.484 379.468 288.717 386.285 280.191C393.763 270.837 400.047 262.978 407.369 257.705C413.062 253.606 415.125 252.669 419.975 250.468C421.272 249.879 422.768 249.199 424.587 248.345C437.449 242.3 452.055 238.801 465.767 235.515L466.832 235.26ZM325.147 250.706C332.56 248.735 338.113 252.217 342.345 261.938L331.41 270.607L331.399 270.611L320.1 275.07L319.818 273.829C316.724 259.804 318.739 252.409 325.147 250.706ZM342.345 261.938L331.419 270.604C331.638 270.517 331.864 270.463 332.089 270.438C332.296 270.416 332.503 270.42 332.705 270.447C333.185 270.511 333.641 270.711 334.015 271.024C334.261 271.23 334.471 271.483 334.63 271.778C337.209 276.422 339.203 277.528 341.227 276.392C343.37 275.191 344.043 270.673 342.478 262.601L342.345 261.938ZM200.587 367.612C201.783 366.842 210.033 362.817 202.686 370.384C195.339 377.949 138.118 410.047 107.23 411.825C77.4594 413.538 51.0272 401.105 28.0295 384.833L27.2674 384.289L27.1155 384.485C26.0975 385.776 25.0513 386.947 23.9764 387.999L23.5139 388.442C21.566 390.271 18.1947 392.341 13.3237 394.747C12.0493 395.376 7.54631 395.955 9.87637 393.578C12.2065 391.202 17.3064 387.781 20.2765 385.819C22.2176 384.537 22.8306 383.039 23.4388 381.551C23.7612 380.762 24.0823 379.977 24.5992 379.229C25.4294 378.028 27.0915 377.757 28.2598 378.633C50.9315 395.625 77.4151 404.683 107.23 402.967C137.168 401.243 168.087 388.524 200.587 367.612ZM376.674 384.021C377.718 383.057 377.718 376.18 376.674 377.144C365.11 387.814 340.9 397.2 311.027 398.919C281.115 400.64 257.598 395.938 240.43 384.898C239.235 384.129 233.316 382.096 236.873 385.671C240.43 389.245 280.408 407.896 311.322 406.116L312.248 406.061C342.709 404.202 364.185 395.545 376.674 384.021ZM355.558 257.088L355.403 256.626L347.655 262.28L347.797 263.079C349.355 272.192 348.292 278.149 343.971 280.751L343.745 280.883C339.24 283.408 335 281.624 331.454 276.434L331.299 276.203L320.88 280.411L321.121 280.849C329.084 295.22 337.912 299.217 348.3 293.766L348.636 293.586C359.068 287.925 361.639 276.372 355.919 258.208L355.558 257.088ZM51.5862 47.3548C51.5862 49.3416 49.9699 50.9579 47.9831 50.9579C45.9963 50.9579 44.38 49.3416 44.38 47.3548C44.38 45.3679 45.9963 43.7517 47.9831 43.7517C49.9699 43.7517 51.5862 45.3679 51.5862 47.3548Z" fill="#00160A"/>
</svg>
