<svg width="22" height="23" viewBox="0 0 22 23" fill="none" xmlns="http://www.w3.org/2000/svg">
<path d="M9.87454 2.96407C10.4952 2.48133 11.3487 2.45116 11.9985 2.87356L12.1256 2.96407L19.8107 8.94138C20.4723 9.45598 20.15 10.4922 19.3539 10.5776L19.2474 10.5833H18.3334V17.9166C18.3334 18.8831 17.5855 19.6749 16.6369 19.7449L16.5001 19.7499H5.50007C4.53357 19.7499 3.74175 19.0021 3.67177 18.0534L3.66674 17.9166V10.5833H2.75275C1.91549 10.5833 1.53221 9.56799 2.10872 9.01127L2.1894 8.94138L9.87454 2.96407ZM11.0001 4.41122L5.1567 8.95606C5.36618 9.12581 5.50007 9.38516 5.50007 9.67578V17.9166H8.25007V13.3333C8.25007 11.8145 9.48129 10.5833 11.0001 10.5833C12.5189 10.5833 13.7501 11.8145 13.7501 13.3333V17.9166H16.5001V9.67578C16.5001 9.38515 16.6339 9.1258 16.8434 8.95606L11.0001 4.41122ZM11.0001 12.4166C10.4938 12.4166 10.0835 12.827 10.0835 13.3333V17.9166H11.9168V13.3333C11.9168 12.827 11.5063 12.4166 11.0001 12.4166Z" fill="white"/>
</svg>
